<svg width="95" height="90" viewBox="0 0 95 90" fill="none" xmlns="http://www.w3.org/2000/svg">
<path fill-rule="evenodd" clip-rule="evenodd" d="M39.5832 7.49969C39.5839 6.71762 39.3266 5.95491 38.8471 5.31828C38.3676 4.68165 37.69 4.20296 36.9092 3.94921C36.1283 3.69547 35.2833 3.67935 34.4923 3.90312C33.7013 4.12689 33.0039 4.57936 32.4978 5.19719L4.78944 38.9472C4.24891 39.6055 3.95544 40.4157 3.95544 41.2497C3.95544 42.0837 4.24891 42.8939 4.78944 43.5522L32.4978 77.3022C33.0039 77.92 33.7013 78.3725 34.4923 78.5963C35.2833 78.82 36.1283 78.8039 36.9092 78.5502C37.69 78.2964 38.3676 77.8177 38.8471 77.1811C39.3266 76.5445 39.5839 75.7818 39.5832 74.9997V60.0372C60.8751 60.4572 71.1034 64.2859 76.2413 68.4484C81.1259 72.4047 82.0205 77.0584 82.9507 81.9334L83.1922 83.1897C83.3698 84.0886 83.888 84.895 84.6494 85.4573C85.4107 86.0195 86.3627 86.2988 87.3262 86.2426C88.2897 86.1864 89.1983 85.7985 89.8811 85.152C90.5639 84.5055 90.9738 83.645 91.0336 82.7322C91.7105 72.4272 90.6932 57.4947 83.0101 45.0034C75.5526 32.8797 62.1219 23.5572 39.5832 22.5822V7.49969Z" fill="white"/>
</svg>
